<?xml version="1.0" encoding="iso-8859-1"?>
<!-- Generator: Adobe Illustrator 19.0.0, SVG Export Plug-In . SVG Version: 6.00 Build 0)  -->
<svg version="1.1" id="Capa_1" xmlns="http://www.w3.org/2000/svg" xmlns:xlink="http://www.w3.org/1999/xlink" x="0px" y="0px"
	 viewBox="0 0 512 512" style="enable-background:new 0 0 512 512;" xml:space="preserve">
<polygon style="fill:#FF5E6B;" points="476.898,290.988 504.502,256.001 476.898,221.015 492.34,179.21 455.276,154.466 
	457.043,109.936 414.146,97.857 402.067,54.96 357.537,56.727 332.793,19.664 290.989,35.105 256.002,7.501 221.015,35.105 
	179.211,19.664 154.467,56.727 109.937,54.96 97.858,97.857 54.961,109.936 56.728,154.466 19.664,179.21 35.105,221.015 
	7.502,256.001 35.105,290.988 19.664,332.792 56.728,357.536 54.961,402.066 97.858,414.145 109.937,457.042 154.467,455.275 
	179.211,492.339 221.015,476.898 256.002,504.501 290.989,476.898 332.793,492.339 357.537,455.275 402.067,457.042 
	414.146,414.145 457.043,402.066 455.276,357.536 492.34,332.792 "/>
<circle style="fill:#FFCE1C;" cx="256.002" cy="256.001" r="199.22"/>
<path d="M12.629,330.193c-1.203,3.255-0.015,6.91,2.871,8.836l33.567,22.41l-1.601,40.329c-0.138,3.467,2.121,6.576,5.461,7.517
	l38.85,10.94l10.94,38.85c0.94,3.341,4.055,5.599,7.517,5.461l40.329-1.6l22.41,33.567c1.926,2.886,5.581,4.073,8.836,2.871
	l37.86-13.984c0,0,31.687,24.999,31.687,25c2.704,2.133,6.587,2.161,9.29-0.001l31.686-24.999l37.861,13.984
	c3.255,1.202,6.91,0.015,8.836-2.871l22.41-33.567l40.329,1.6c3.464,0.135,6.576-2.122,7.517-5.461l10.94-38.85l38.85-10.94
	c3.34-0.941,5.599-4.049,5.461-7.517l-1.6-40.329l33.567-22.41c2.886-1.927,4.073-5.582,2.871-8.836l-13.984-37.861l24.999-31.686
	c2.149-2.725,2.149-6.567,0-9.291l-24.999-31.687l13.984-37.86c1.202-3.255,0.015-6.909-2.871-8.836l-33.567-22.41l1.6-40.329
	c0.137-3.467-2.121-6.576-5.461-7.517l-38.85-10.94l-10.94-38.85c-0.94-3.34-4.055-5.596-7.517-5.461l-40.329,1.601l-22.41-33.567
	c-1.927-2.886-5.582-4.073-8.836-2.871l-37.861,13.984l-31.686-25c-2.725-2.148-6.567-2.148-9.291,0l-31.687,25l-37.86-13.984
	c-3.255-1.203-6.91-0.015-8.836,2.871l-22.41,33.567l-40.329-1.601c-3.463-0.133-6.576,2.122-7.517,5.461l-10.94,38.85l-38.85,10.94
	c-3.34,0.941-5.599,4.05-5.461,7.517l1.601,40.329l-33.567,22.41c-2.886,1.927-4.074,5.581-2.871,8.836l13.984,37.86l-25,31.687
	c-2.149,2.724-2.149,6.566,0,9.291l25,31.686L12.629,330.193z M17.055,256.002l23.938-30.341c1.618-2.05,2.052-4.794,1.147-7.244
	l-13.391-36.253l32.143-21.459c2.172-1.45,3.433-3.925,3.33-6.535l-1.533-38.617l37.201-10.476c2.514-0.708,4.479-2.672,5.186-5.186
	l10.476-37.201l38.617,1.533c2.605,0.099,5.084-1.158,6.535-3.33l21.459-32.143l36.253,13.391c2.45,0.905,5.194,0.47,7.244-1.147
	l30.342-23.94l30.341,23.938c2.05,1.618,4.794,2.052,7.244,1.147l36.253-13.391l21.458,32.143c1.45,2.172,3.927,3.431,6.535,3.33
	l38.617-1.533l10.476,37.201c0.708,2.514,2.673,4.479,5.187,5.186l37.2,10.476l-1.532,38.617c-0.104,2.609,1.158,5.085,3.33,6.535
	l32.143,21.459l-13.391,36.253c-0.905,2.45-0.47,5.194,1.147,7.244L494.948,256l-23.938,30.341c-1.617,2.05-2.052,4.794-1.147,7.244
	l13.391,36.253l-32.143,21.458c-2.172,1.45-3.434,3.926-3.33,6.535l1.532,38.617l-37.2,10.476c-2.514,0.708-4.479,2.673-5.187,5.187
	l-10.476,37.2l-38.617-1.532c-2.604-0.103-5.085,1.157-6.535,3.33l-21.458,32.143l-36.253-13.391
	c-2.449-0.905-5.193-0.47-7.244,1.147l-30.341,23.94l-30.341-23.938c-1.343-1.06-2.985-1.611-4.646-1.611
	c-0.874,0-1.754,0.152-2.598,0.464l-36.253,13.391l-21.459-32.143c-1.45-2.172-3.923-3.432-6.535-3.33l-38.617,1.532l-10.476-37.2
	c-0.708-2.514-2.672-4.479-5.186-5.187L62.69,396.451l1.533-38.617c0.104-2.609-1.158-5.085-3.33-6.535L28.75,329.841l13.391-36.253
	c0.905-2.45,0.47-5.194-1.147-7.244L17.055,256.002z"/>
<path d="M256.002,462.716c113.983,0,206.715-92.732,206.715-206.715S369.985,49.286,256.002,49.286
	c-60.551,0-117.86,26.437-157.234,72.531c-2.69,3.149-2.318,7.884,0.832,10.574c3.149,2.69,7.883,2.318,10.574-0.832
	c36.519-42.753,89.672-67.273,145.828-67.273c105.712,0,191.715,86.003,191.715,191.715s-86.003,191.715-191.715,191.715
	S64.287,361.713,64.287,256.002c0-36.121,10.108-71.316,29.232-101.779c2.203-3.508,1.144-8.137-2.365-10.34
	c-3.508-2.202-8.137-1.144-10.339,2.365c-20.626,32.855-31.528,70.808-31.528,109.754
	C49.287,369.984,142.019,462.716,256.002,462.716z"/>
<path d="M170.211,259.937v-16.884c0-4.143-3.358-7.5-7.5-7.5s-7.5,3.357-7.5,7.5v16.884c0,4.143,3.358,7.5,7.5,7.5
	S170.211,264.08,170.211,259.937z"/>
<path d="M356.793,259.937v-16.884c0-4.143-3.358-7.5-7.5-7.5s-7.5,3.357-7.5,7.5v16.884c0,4.143,3.358,7.5,7.5,7.5
	S356.793,264.08,356.793,259.937z"/>
<path d="M256.002,276.45c11.138,0,21.588-4.647,28.672-12.751c2.726-3.119,2.408-7.857-0.711-10.583
	c-3.118-2.726-7.856-2.408-10.583,0.711c-4.235,4.844-10.569,7.623-17.378,7.623c-6.81,0-13.145-2.779-17.379-7.624
	c-2.726-3.118-7.464-3.438-10.583-0.71c-3.118,2.726-3.437,7.464-0.711,10.583C234.413,271.802,244.864,276.45,256.002,276.45z"/>
<g>
</g>
<g>
</g>
<g>
</g>
<g>
</g>
<g>
</g>
<g>
</g>
<g>
</g>
<g>
</g>
<g>
</g>
<g>
</g>
<g>
</g>
<g>
</g>
<g>
</g>
<g>
</g>
<g>
</g>
</svg>
